<?xml version="1.0" encoding="UTF-8"?><svg id="Layer_1" xmlns="http://www.w3.org/2000/svg" xmlns:xlink="http://www.w3.org/1999/xlink" viewBox="0 0 1920 1021.68"><defs><style>.cls-1{fill:none;}.cls-2{fill:url(#linear-gradient);}.cls-3{clip-path:url(#clippath);}.cls-4{fill:#f2f2f2;}.cls-5{fill:#fbbebe;}.cls-6{fill:#ff0090;}.cls-7{fill:#ff6584;}.cls-8{fill:#65617d;}.cls-9{fill:#dff5ff;}.cls-10{fill:#3f3d56;}.cls-11{opacity:.1;}.cls-11,.cls-12{isolation:isolate;}.cls-13{clip-path:url(#clippath-1);}.cls-14{clip-path:url(#clippath-3);}.cls-15{clip-path:url(#clippath-2);}.cls-16{fill:url(#radial-gradient-2);}.cls-17{fill:url(#linear-gradient-3);}.cls-18{fill:url(#linear-gradient-4);}.cls-19{fill:url(#linear-gradient-2);}.cls-20{fill:url(#linear-gradient-5);}.cls-21{fill:url(#radial-gradient);}.cls-12{opacity:.2;}</style><clipPath id="clippath"><rect class="cls-1" width="1920" height="1021.68"/></clipPath><clipPath id="clippath-1"><path class="cls-1" d="M510.01,603.86c0,3.13-1.11,8.48-2.58,12.35-.37,.74-.55,1.48-.55,1.66s-.92,2.4-1.84,4.61c-.92,2.03-3.13,6.45-4.06,8.11-.55,.92-1.11,2.03-1.29,2.4-.18,.37-.74,1.29-1.11,1.84-.37,.55-.74,1.48-1.11,1.84-.18,.37-.55,1.11-.92,1.48-.74,1.29-1.48,2.21-1.66,2.58-.18,.18-.55,.92-1.11,1.66-.37,.74-1.11,1.48-1.29,2.03-.92,1.29-2.4,3.5-2.95,4.24-.37,.37-.55,.74-.55,.74,0,.18-7.01,9.4-7.74,10.51-.74,.74-.55,.55-2.4,3.13-.92,1.11-1.84,2.4-2.21,2.77-.55,.74-2.58,3.32-5.72,7.19-.92,1.29-2.4,2.95-3.13,3.87-.74,.74-1.48,2.03-2.03,2.4-2.03,2.58-2.21,2.95-2.77,3.5-1.66,2.03-4.98,6.27-7.38,9.59-1.66,2.03-2.95,3.87-2.95,3.87-.18,0-.18,.18-.18,.18,0,.18-.74,1.11-1.66,2.4-2.03,2.77-2.4,3.13-5.9,8.67-1.84,2.77-3.5,6.45-4.61,9.96-1.29,3.87-1.29,9.4,0,13.46,1.29,4.06,2.95,7.19,5.53,10.88,1.11,1.48,3.5,4.43,4.79,5.72,2.4,2.4,7.38,6.82,10.33,8.67,3.32,2.4,3.87,2.58,3.87,2.58,0,0,.55,.37,1.11,.74,.55,.37,1.11,.74,1.11,.74,0,0-.18-.74-.55-1.48-.92-1.66-1.11-2.21-1.48-4.61-.74-3.87-.37-8.67,1.11-12.35,.92-2.58,2.95-6.45,4.61-9.03,1.11-1.66,3.69-5.53,4.43-6.45,.37-.55,.92-1.29,.92-1.48s.37-.55,.55-.92c.18-.18,.74-.92,1.11-1.48,.37-.55,.92-1.29,1.29-1.66,.37-.37,.74-1.11,1.11-1.48,.74-.92,1.66-2.21,2.03-2.58,.18-.18,.92-1.11,1.84-2.4,2.03-2.58,2.03-2.77,3.87-4.79,.74-.92,1.48-1.84,1.84-2.21,.92-1.11,3.13-3.87,4.06-4.98,.55-.55,1.11-1.29,1.29-1.66,.55-.74,4.06-4.98,4.24-5.16,0,0,.55-.55,.92-1.29,.55-.55,1.48-1.66,2.03-2.4,.55-.74,1.29-1.66,1.66-2.03,1.29-1.66,5.9-7.19,7.01-8.48,.18-.37,.74-.92,1.29-1.48,.37-.55,.92-1.11,1.11-1.48,.74-.74,6.27-7.38,7.01-8.3,.37-.37,1.11-1.48,1.84-2.21,.74-.74,1.48-1.84,1.84-2.21,.37-.37,.74-.92,1.11-1.29,1.84-2.21,4.61-5.9,6.08-8.3,2.21-3.5,3.69-7.38,4.06-10.51,.18-2.95-.74-6.64-2.77-10.69l-1.66-3.32c-.18-.37-.55-.92-.92-1.48-.74-1.11-3.13-4.98-4.79-7.19-.74-.92-1.29-1.84-1.48-2.21-.18-.18-.74-1.11-1.29-1.84-.55-.74-1.11-1.66-1.29-1.84s-.37-.55-.55-.74c-.18-.18-.37-.55-.74-.92-.18-.37-1.11-1.48-1.84-2.58-.74-1.11-1.48-2.03-1.48-2.21-.18-.18-.37-.55-.55-.74-.18-.18-.74-.92-1.29-1.66-3.5-4.98-4.24-6.08-4.43-6.08-.18,.18-.18,.74-.18,1.84h0Z"/></clipPath><linearGradient id="linear-gradient" x1="283.68" y1="985.24" x2="233.86" y2="921.86" gradientTransform="translate(15.45 2507.61) scale(1.84 -1.84)" gradientUnits="userSpaceOnUse"><stop offset="0" stop-color="#006eff"/><stop offset="1" stop-color="#000"/></linearGradient><clipPath id="clippath-2"><path class="cls-1" d="M532.87,678.17c0,.18,.18,.55,.37,.92,.18,.37,.37,.92,.37,2.03,0,3.69-2.03,8.48-5.72,14.2-1.29,1.84-2.58,3.69-2.77,4.06-.18,.18-2.4,3.13-2.77,3.69-.18,.18-2.4,3.32-5.16,6.82-5.35,7.19-7.01,9.4-7.93,10.69-.37,.55-1.48,2.21-2.77,3.69-3.13,4.43-4.06,5.53-4.43,6.08-.18,.18-.55,.74-.92,1.29-.37,.37-.74,1.11-.92,1.48-.18,.37-.74,.92-1.11,1.48-.37,.55-.74,.92-.74,1.11s-.18,.37-.37,.37c-.18,.18-.55,.74-.92,1.11-.37,.55-.92,1.29-1.29,1.84-.37,.55-.74,1.11-.92,1.48-.18,.37-1.29,1.84-2.4,3.5s-2.4,3.69-2.95,4.43c-.37,.74-.92,1.66-1.11,2.03-1.11,1.66-2.77,5.53-3.13,7.38-.92,3.32-1.11,5.53-.92,7.93,.18,1.84,1.11,5.35,1.66,6.64,1.29,2.95,2.95,5.9,3.69,7.01,.18,.37,.37,.55,.37,.74s2.21,3.32,3.13,4.24c2.77,3.32,6.82,7.38,9.96,10.14,3.32,2.77,3.69,3.13,2.77,1.48-.92-1.66-1.66-4.79-1.66-7.38,0-4.43,1.66-10.14,4.43-15.67,.92-2.03,2.03-3.87,2.4-4.43,.18-.18,.37-.55,.37-.55,0,0,.18-.37,.55-.92,.37-.37,1.29-1.84,2.21-3.13,2.03-2.95,1.84-2.95,3.32-4.61,.55-.74,1.11-1.66,1.11-1.66q0-.18,.18-.18c.18,0,.74-.74,2.4-2.95,.37-.55,.92-1.29,1.48-1.84,.37-.37,1.29-1.66,2.03-2.58,1.29-1.48,3.13-3.87,4.06-4.79,.18-.18,.74-.92,1.11-1.29,.55-.74,1.29-1.66,4.61-5.53,.18-.37,.74-.92,1.11-1.48,.37-.55,1.29-1.48,1.84-2.21,.74-.74,1.48-1.66,1.84-2.03,.37-.37,1.11-1.29,1.66-2.03,.55-.74,1.48-1.84,1.84-2.21,.37-.55,.92-1.11,1.11-1.48,.92-1.29,1.84-2.4,2.03-2.77,.18-.18,.55-.92,1.11-1.84,1.48-2.21,3.13-5.72,3.87-8.3,.55-2.03,.55-2.21,.55-5.16s0-3.13-.55-4.79c-.74-2.58-2.21-5.16-4.06-7.93-.55-.74-.92-1.48-1.11-1.66-.18-.18-.37-.55-.55-.74-.18-.18-.55-.74-.74-.92-.55-.74-4.79-6.45-5.35-7.01-.18-.37-.55-.74-.74-.92s-.55-.74-.92-1.11c-.37-.37-1.48-1.84-2.4-3.13-.92-1.29-2.03-2.4-2.03-2.4,0-.55-.18-.37-.18-.18h0Z"/></clipPath><linearGradient id="linear-gradient-2" x1="283.75" y1="985.2" x2="233.93" y2="921.81" gradientTransform="translate(15.45 2507.61) scale(1.84 -1.84)" gradientUnits="userSpaceOnUse"><stop offset="0" stop-color="#006eff"/><stop offset="1" stop-color="#000"/></linearGradient><clipPath id="clippath-3"><path class="cls-1" d="M532.69,765.01c0,.74-1.84,7.19-2.95,9.96-.18,.55-.74,1.84-1.11,2.77-.37,.92-.74,2.03-.92,2.4-.18,.37-.74,1.66-1.11,2.95-.55,1.11-1.11,2.77-1.48,3.5-.37,.74-.55,1.29-.55,1.48s-.18,.74-.37,1.29c-.55,1.48-1.29,4.43-1.48,6.45-.18,1.66,0,4.24,.37,5.16,.18,.18,.18,.74,.37,1.29,.18,1.11,2.21,5.16,3.13,6.27,.18,.37,.55,.74,.55,.74,0,.18,.74,1.11,1.66,2.4,.37,.37,.92,1.11,1.29,1.66,.37,.55,.92,1.11,.92,1.29,.18,.18,.37,.55,.74,.74,.74,.92,4.43,4.98,7.38,7.93,.18,.18,2.4,2.21,4.98,4.79,10.69,10.33,14.2,14.01,16.23,17.33,.74,1.11,2.95,5.72,3.32,6.82,.18,.55,.55,.37,.55-.18,0-.92,.74-3.69,1.29-5.35,.74-2.03,2.95-6.45,3.69-7.93,.37-.55,2.21-4.79,2.95-6.45,2.4-5.72,2.95-10.69,1.29-14.94-.92-2.58-1.84-4.24-4.24-7.56-.55-.92-1.11-1.48-3.5-4.24-.55-.74-3.32-3.5-6.08-6.27-5.35-5.35-8.3-8.48-9.77-10.33-.37-.37-.55-.74-.74-.92-.18-.18-.55-.55-.92-1.11-.37-.55-.74-.92-.92-1.11-.18-.18-.37-.55-.74-.74-.18-.37-.55-.74-.55-.74-.74-.92-3.87-5.16-4.06-5.53-.18-.18-.74-1.11-1.29-2.03-.55-.92-1.66-2.58-2.21-3.5s-1.29-2.03-1.48-2.4c-.37-.37-.55-.74-.55-.92,0,0-.18-.55-.55-.92s-.74-1.11-.74-1.29c-.55-1.11-1.84-2.95-2.03-3.13-.18,0-.37,.18-.37,.37h0Z"/></clipPath><linearGradient id="linear-gradient-3" x1="283.75" y1="985.2" x2="233.93" y2="921.81" gradientTransform="translate(15.45 2507.61) scale(1.84 -1.84)" gradientUnits="userSpaceOnUse"><stop offset="0" stop-color="#006eff"/><stop offset="1" stop-color="#000"/></linearGradient><radialGradient id="radial-gradient" cx="-1322.89" cy="243.62" fx="-1322.89" fy="243.62" r=".43" gradientTransform="translate(524844.07 -68287.56) scale(395.75 283.1)" gradientUnits="userSpaceOnUse"><stop offset="0" stop-color="#f80090"/><stop offset="1" stop-color="#4d008e"/></radialGradient><radialGradient id="radial-gradient-2" cx="-1323.87" cy="242.2" fx="-1323.87" fy="242.2" r=".39" gradientTransform="translate(585284.54 -80132.76) scale(441.11 333.68)" gradientUnits="userSpaceOnUse"><stop offset="0" stop-color="#57008e"/><stop offset=".29" stop-color="#5c008e"/><stop offset="1" stop-color="#f80090"/></radialGradient><linearGradient id="linear-gradient-4" x1="-1306.97" y1="253.37" x2="-1306.67" y2="253.78" gradientTransform="translate(182448.59 -27223.76) scale(138.64 110.5)" gradientUnits="userSpaceOnUse"><stop offset="0" stop-color="#f70090"/><stop offset=".67" stop-color="#e50090"/><stop offset=".83" stop-color="#d6008f" stop-opacity=".2"/><stop offset="1" stop-color="#c10090" stop-opacity="0"/></linearGradient><linearGradient id="linear-gradient-5" x1="-1296.77" y1="273.81" x2="-1296.87" y2="273.7" gradientTransform="translate(130953.07 -14288.33) scale(100.03 54.61)" gradientUnits="userSpaceOnUse"><stop offset="0" stop-color="#b2008f" stop-opacity=".15"/><stop offset=".4" stop-color="#f70090" stop-opacity=".4"/><stop offset=".65" stop-color="#f60090" stop-opacity=".89"/><stop offset="1" stop-color="#ff0090"/></linearGradient></defs><g class="cls-3"><g id="Untitled"><path class="cls-4" d="M1772.86,807.97c-2.21,4.61-4.24,9.22-6.45,13.64-3.32,7.01-6.64,13.83-9.77,20.47-1.48,2.95-2.95,5.9-4.24,8.85-15.86,32.45-30.61,61.03-43.33,84.63-23.23,43.51-68.41,70.8-117.64,71.36l-279.53,3.13h-2.95l-23.97,.18-20.47,.18-62.88,.74h-2.58l-32.08,.37h-.92l-197.29,2.21-176.09,1.84-20.47,.18-127.23,1.48h-.18l-82.6,.92h-.92l-260.9,2.77-77.99,.92c-6.64,0-13.28-.18-19.91-.92h0c-2.21-.18-4.43-.55-6.64-.92-36.32-5.53-69.7-23.6-94.59-50.71-33.56-36.88-58.08-80.02-74.49-126.86-2.4-6.82-4.61-13.64-6.64-20.47-56.79-192.13,12.54-439.76,137.18-605.52,5.16-7.01,10.51-13.64,15.86-20.28l.18-.18c38.35-47.02,81.31-86.29,127.04-114.32,81.13-49.6,171.11-63.61,259.43-21.94,74.86,35.22,144.74,51.81,212.41,56.42,6.82,.37,13.64,.74,20.47,.92,155.25,4.79,300.92-51.07,471.84-87.21,6.82-1.48,13.64-2.95,20.47-4.24,121.88-24.71,257.03-37.43,418-10.51,16.78,2.77,33.19,6.64,49.42,11.8,7.01,2.21,14.01,4.79,20.47,7.38,76.7,31.16,118.56,88.87,136.44,161.34,1.66,6.64,3.13,13.46,4.43,20.47,31.35,173.87-61.03,420.58-140.87,591.88Z"/><path class="cls-11" d="M916.39,821.62c-.74,6.82-1.84,13.83-3.5,20.47h172.77v-20.47h-169.27Zm-144.19,115.79l20.47-.18v-50.71c-7.01-.37-13.83-.55-20.47-.92v51.81Zm-429.62-115.79v20.47h366v-20.47H342.59ZM1909.31,195.63h-136.44V34.3c-6.64-2.58-13.46-5.16-20.47-7.38V195.63h-467.42V25.08c-6.82,1.29-13.64,2.77-20.47,4.24V195.45h-471.84V116.53c-6.82-.18-13.64-.55-20.47-.92v80.02H300.36V81.31c-45.73,28.03-88.69,67.3-127.04,114.32h-.18v.18c-5.35,6.64-10.69,13.46-15.86,20.28h15.86V821.62H20.1c2.03,7.01,4.24,13.83,6.64,20.47H173.14v172.58c7.38,2.21,14.94,4.06,22.49,5.16,2.21,.37,4.43,.55,6.64,.92h0c6.64,.74,13.28,1.11,19.91,.92l77.99-.92v-178.85h471.84v173.69l20.47-.18v-173.51h471.84v168.53l20.47-.18v-168.16h467.42v8.85c1.48-2.95,2.77-5.9,4.24-8.85,3.32-6.64,6.45-13.46,9.77-20.47,2.21-4.43,4.24-9.03,6.45-13.64V216.1h140.87c-1.11-7.01-2.58-13.83-4.24-20.47ZM300.36,821.62V215.91h471.84V821.43H300.36v.18Zm492.31,0V215.91h471.84V821.43h-471.84v.18Zm959.72,0h-467.42V215.91h467.42V821.62Z"/><path class="cls-8" d="M1591.43,983.88v23.97l-280.08,2.58h-2.95l-106.39,.92h-2.58l-32.27,.37h-.92l-197.29,1.84-323.78,2.95h-.18l-82.24,.74h-.92l-365.82,3.32v-27.66l85.92-51.63,172.58-1.48h8.67l82.79-.74h8.48l26.55-.18h.74l65.46-.55h.55l511.48-4.24h23.42l69.51-.55h8.85l21.57-.18h9.96l18.07-.18,28.58-.18h11.43l137.74-1.11,103.07,52Z"/><path class="cls-12" d="M1591.43,983.88v23.97l-280.08,2.58h-2.95l-106.39,.92h-2.58l-32.27,.37h-.92l-197.29,1.84-323.78,2.95h-.18l-82.24,.74h-.92l-365.82,3.32v-27.66l85.92-51.63,172.58-1.48h8.67l82.79-.74h8.48l26.55-.18h.74l65.46-.55h.55l511.48-4.24h23.42l69.51-.55h8.85l21.57-.18h9.96l18.07-.18,28.58-.18h11.43l137.74-1.11,103.07,52Z"/><path class="cls-10" d="M545.96,891.69v45.17c0,4.43-2.58,8.3-6.45,10.14-1.48,.74-2.95,1.11-4.61,1.11l-64.35,1.29c-1.66,0-3.5-.37-4.98-1.11-4.06-1.84-6.64-5.9-6.64-10.33v-46.47h87.03v.18Z"/><path class="cls-11" d="M545.96,891.69v45.17c0,4.43-2.58,8.3-6.45,10.14-1.48,.74-2.95,1.11-4.61,1.11l-64.35,1.29c-1.66,0-3.5-.37-4.98-1.11-4.06-1.84-6.64-5.9-6.64-10.33v-46.47h87.03v.18Z"/><path class="cls-10" d="M549.65,891.69v45.17c0,4.43-2.58,8.3-6.45,10.14-1.48,.74-2.95,1.11-4.61,1.11l-64.35,1.29c-1.66,0-3.5-.37-4.98-1.11-4.06-1.84-6.64-5.9-6.64-10.33v-46.47h87.03v.18Z"/><path class="cls-10" d="M1255.48,891.69h87.03v58.08h-87.03v-58.08h0Z"/><path class="cls-11" d="M1255.48,891.69h87.03v58.08h-87.03v-58.08h0Z"/><path class="cls-10" d="M1251.79,891.69h87.03v58.08h-87.03v-58.08h0Z"/><path class="cls-11" d="M549.65,891.69v9.22l-87.03,2.4v-11.43l87.03-.18h0Z"/><path class="cls-8" d="M703.06,575.83v310.14c0,3.87-3.13,7.19-7.19,7.38l-353.28,9.4h0c-4.06,0-7.19-3.32-7.38-7.38v-319.54c0-4.06,3.32-7.19,7.38-7.38h353.28c4.06,.18,7.19,3.5,7.19,7.38h0Z"/><path class="cls-11" d="M342.59,568.64v334.11h0c-4.06,0-7.19-3.32-7.38-7.38v-319.54c.18-3.87,3.32-7.19,7.38-7.19h0Z"/><path class="cls-9" d="M358.81,588.37h327.28v273.26l-327.28,7.38v-280.63Z"/><path class="cls-11" d="M1338.82,891.69v11.8l-87.03-2.4v-9.4h87.03Z"/><path class="cls-8" d="M1453.51,575.83v319.54c0,4.06-3.32,7.38-7.38,7.38h0l-353.47-9.4c-3.87-.18-7.01-3.32-7.01-7.38v-310.14c0-4.06,3.32-7.19,7.19-7.38h353.28c4.06,.18,7.38,3.32,7.38,7.38Z"/><path class="cls-11" d="M1453.51,575.83v319.54c0,4.06-3.32,7.38-7.38,7.38h0v-334.11h0c4.06,0,7.38,3.13,7.38,7.19h0Z"/><path class="cls-9" d="M1430.09,588.37h-327.28v273.26l327.28,7.38v-280.63Z"/><path class="cls-8" d="M1076.44,575.83v310.14c0,3.87-3.13,7.19-7.01,7.38l-353.28,9.4h0c-4.06,0-7.38-3.32-7.38-7.38v-319.54c0-4.06,3.32-7.19,7.38-7.38h353.28c3.87,.18,7.01,3.5,7.01,7.38Z"/><path class="cls-9" d="M732.19,588.37h327.28v273.26l-327.28,7.38v-280.63Z"/><path class="cls-11" d="M1591.43,983.88v23.97l-280.08,2.58h-2.95l-106.39,.92h-2.58l-32.27,.37h-.92l-197.29,1.84-323.78,2.95h-.18l-82.24,.74h-.92l-365.82,3.32v-27.66l373.38-2.4h.92l75.6-.55h.37l521.99-3.5h13.46l137.37-.92h9.96l262.38-1.66Z"/><path class="cls-5" d="M803.73,549.65c0-52.24,42.35-94.59,94.59-94.59s94.59,42.35,94.59,94.59-42.35,94.59-94.59,94.59-94.59-42.35-94.59-94.59Z"/><path class="cls-5" d="M993.1,695.32s-183.46,22.13-165.95,0c6.27-7.93,8.11-31.71,7.74-58.63-.18-8.3-.37-16.78-.92-25.08-2.03-40.56-7.01-80.21-7.01-80.21,0,0,160.41-75.6,141.98-15.67-7.38,24.15-4.98,58.27,.55,90.16,1.66,9.22,3.5,18.44,5.53,27.1,5.16,21.02,11.06,41.86,18.07,62.32Z"/><path class="cls-7" d="M933.17,687.94c21.2-3.87,43.7-11.06,63.61-2.77,5.16,2.21,10.14,5.35,15.49,7.19s11.25,2.21,16.96,3.5c19.73,4.43,35.59,19.36,45.91,36.88,10.33,17.52,15.49,37.06,20.84,56.61l12.72,47.57c11.06,41.49,22.13,83.16,24.71,125.93-153.96,8.85-308.48,9.77-462.44,2.58,9.96-18.99,20.28-39.27,19.36-60.85-.92-21.57-13.28-42.78-8.85-63.98,2.77-13.46,12.17-24.71,17.7-37.25,16.23-35.96,3.5-84.45,31.9-111.92,12.72-12.35,31.35-16.96,49.05-16.41,22.68,.74,45.73,7.74,68.22,11.25,28.76,4.24,55.87,6.82,84.82,1.66Z"/><path class="cls-11" d="M1174.53,892.79l-.18,2.58v.18l-.37,4.24-2.4,34.11-2.95,41.12-.92,11.62-1.84,24.71v.37l-197.29,1.84-323.78,3.5v1.48h-.18v-2.03l.92-26.55,1.66-51.81,1.29-43.88,.18-4.43c.37-10.69,9.22-19.18,19.91-18.81h1.11c8.67,.74,20.1,1.66,33.56,2.58l5.53,.37c77.99,5.35,222.37,12.35,367.85,3.69,3.13-.18,6.08-.37,9.22-.55,22.49-1.48,45.17-3.32,67.48-5.53,10.69-1.11,20.28,6.64,21.39,17.33,0,1.48,0,2.77-.18,3.87h0Z"/><path class="cls-10" d="M644.79,1018.73v-1.48l323.78-3.5,197.29-1.84h.55v-.37l1.84-24.71,.74-11.06,2.95-41.67,2.4-33v-.74c.18-1.48,0-3.13-.18-4.61v-.18c-.55-3.13-1.84-6.08-3.69-8.48-4.06-5.35-10.69-8.11-17.33-7.38-22.31,2.21-44.81,4.06-67.48,5.53-3.13,.18-6.08,.37-9.22,.55-145.48,8.67-289.85,1.66-367.85-3.69l-5.53-.37c-13.46-.92-24.89-1.84-33.56-2.58-9.96-.92-18.81,5.9-20.65,15.67-.18,.92-.37,2.03-.37,2.95l-1.29,40.93-1.66,51.81-.74,26.55v1.66h0Z"/><path class="cls-11" d="M1175.08,905.7l-2.21,28.21-3.32,42.04-.92,10.51-1.84,23.6-.18,1.11v.37h0l-.37,2.77,.18-2.77h-.55l-197.29,1.84-323.78,3.5v-.55l.92-26.55,1.84-51.81,1.11-34.48c.18-4.06,2.21-7.56,5.72-9.59,2.03-1.29,4.61-1.84,7.01-1.66,3.87,.37,8.67,.74,14.2,1.11,9.03,.74,20.1,1.48,33,2.21,23.97,1.48,54.02,3.13,88.5,4.43,95.88,3.69,225.32,4.98,348.3-5.9,5.53-.55,11.25-.92,16.78-1.48,2.21-.18,4.43,.18,6.45,1.29,.55,.37,1.11,.55,1.66,.92,1.66,1.11,2.95,2.77,3.69,4.61,.18,.37,.37,.74,.37,1.11,.74,2.03,.92,3.69,.74,5.16Z"/><path class="cls-11" d="M549.65,930.96v5.9c0,4.43-2.58,8.3-6.45,10.14l-73.94,1.48c-4.06-1.84-6.64-5.9-6.64-10.33v-5.53l87.03-1.66Z"/><path class="cls-10" d="M550.57,950.5l-96.25,1.84v-16.04l96.25-1.84v16.04Z"/><path class="cls-11" d="M550.57,950.5l-96.25,1.84v-16.04l96.25-1.84v16.04Z"/><path class="cls-10" d="M554.26,950.5l-96.25,1.84v-16.04l96.25-1.84v16.04Z"/><path class="cls-11" d="M1252.34,934.65v5.9c0,4.43,2.58,8.3,6.45,10.14l73.94,1.48c4.06-1.84,6.64-5.9,6.64-10.33v-5.53l-87.03-1.66Z"/><path class="cls-11" d="M1251.42,954.19l96.25,1.84v-16.04l-96.25-1.84v16.04Z"/><path class="cls-10" d="M1247.73,954.19l96.25,1.84v-16.04l-96.25-1.84v16.04Z"/><path class="cls-10" d="M838.58,578.6c.18,12.91-5.9,25.08-10.88,37.06-18.44,43.51-26.37,90.72-23.42,137.74,1.29,20.28,4.79,40.56,1.29,60.66s-15.49,40.2-35.03,45.91c32.27,19.36,76.15,17.15,106.57-4.98,16.23-11.8,28.21-28.21,40.2-44.44-1.48,29.13-9.77,57.34-24.52,82.6,53.84-4.79,103.07-32.08,135.52-75.23,7.93-10.69,14.94-22.49,17.89-35.4,5.72-23.97-2.21-48.86-8.3-72.83-4.98-20.1-8.85-40.38-11.43-60.85-.74-6.64-1.48-13.28,.18-19.73,1.84-7.56,6.82-13.83,10.33-20.65,10.33-19.36,10.51-42.96,5.35-64.35s-15.67-41.12-26-60.48c-8.3-15.67-17.15-31.9-32.27-41.12-9.4-5.72-20.28-8.11-31.16-10.33l-46.83-9.96c-10.14-2.21-20.84-4.43-31.16-2.77-17.52,2.77-29.69,15.3-40.56,28.21-8.48,10.14-29.13,28.95-30.61,42.22-1.29,12.17,9.4,32.45,11.25,45.36,2.4,16.59,4.06,11.06,13.46,21.2,6.08,6.08,9.96,13.46,10.14,22.13Z"/><g><g class="cls-13"><path class="cls-2" d="M436.07,600.91h142.71v259.25h-142.71v-259.25h0Z"/></g><g class="cls-15"><path class="cls-19" d="M436.25,600.91h142.71v259.25h-142.71v-259.25h0Z"/></g><g class="cls-14"><path class="cls-17" d="M436.25,600.91h142.71v259.25h-142.71v-259.25h0Z"/></g></g><g><path class="cls-6" d="M1165.31,758.93c-11.62-62.14,19.18-121.88,89.98-129.81-9.77-10.51-23.05-10.51-29.32-9.22-10.88,3.5-10.51,10.51-22.86,19.54-12.17,7.01-18.44,1.66-27.29,8.85s-2.77,23.6-6.45,26.92c-3.69,6.45-15.12,12.17-17.33,20.28-1.66,10.33,4.61,17.7,4.43,26.55,.74,7.38-7.38,11.62-6.27,17.52,3.5,9.77,10.14,15.67,13.46,18.44,1.11,.37,1.84,1.66,1.66,.92h0Z"/><path class="cls-21" d="M1291.43,673c-2.58,0-4.61-2.03-4.61-4.61s2.03-4.61,4.61-4.61,4.61,2.03,4.61,4.61-2.03,4.61-4.61,4.61h0Zm-123.35,92.56c-11.25-53.84,23.42-99.01,90.72-76.89,39.46,23.05,89.06,21.57,91.27,6.64,5.53-17.89-25.08-54.76-70.99-64.35-90.9-17.52-139.95,80.76-111,134.6h0Z"/><path class="cls-16" d="M1317.25,771.65c13.46,1.48,26.37-1.84,38.17-11.43-17.89,20.1-40.38,30.05-66.19,32.82,12.35,10.51,24.15,15.12,35.59,13.09-31.53,8.67-57.9-.92-89.98-32.82-1.66,8.67,7.38,21.94,16.78,30.61-54.39-23.6-59.19-96.99,7.19-115.06-68.78-33-107.68,31.16-88.5,83.71,18.62,40.56,68.41,71.73,122.98,64.9,26.55-3.32,66.19-21.57,82.24-64.9-11.43,10.14-31.71,19.18-40.93,19.91,30.79-15.3,47.39-41.49,42.78-77.26-6.45,15.12-14.75,26.92-25.26,34.85,22.31-34.85,18.44-52.92,2.03-72.65,11.8,32.45-3.5,68.59-36.88,94.22h0Z"/><path class="cls-18" d="M1301.57,809.08c-2.4-.37,5.35,3.13-9.4-.74s-29.69-7.74-57.16-35.03c-1.66,8.67,7.38,21.94,16.78,30.61,25.26,17.7,8.11,9.4,46.65,22.68,2.95-6.08,3.13-11.62,3.13-17.52h0Z"/><path class="cls-20" d="M1252.53,670.61s3.32-4.98,4.61-7.19c1.66-2.77,4.06-7.74,4.06-7.74,0,0-25.81-8.48-32.08-9.4-19.73,5.16-19.73,13.28-8.67,26,1.11,1.29,32.08-1.66,32.08-1.66h0Z"/></g></g></g></svg>