<?xml version="1.0" encoding="utf-8"?>
<!-- Generator: Adobe Illustrator 26.4.1, SVG Export Plug-In . SVG Version: 6.00 Build 0)  -->
<svg version="1.1" id="Layer_1" xmlns="http://www.w3.org/2000/svg" xmlns:xlink="http://www.w3.org/1999/xlink" x="0px" y="0px"
	 viewBox="0 0 1051 1908" style="enable-background:new 0 0 1051 1908;" xml:space="preserve">
<style type="text/css">
	
		.st0{clip-path:url(#SVGID_00000155840870561279267550000010507816611234858881_);fill:url(#SVGID_00000170272643957116246880000012425114210452015784_);}
	
		.st1{clip-path:url(#SVGID_00000060713503357327183830000018285465320701289365_);fill:url(#SVGID_00000166643373638274459830000000000377457386775983_);}
	
		.st2{clip-path:url(#SVGID_00000081639792734998059380000002795446583261878920_);fill:url(#SVGID_00000053513320941876103100000007959643538667866288_);}
</style>
<g>
	<g>
		<g>
			<defs>
				<path id="SVGID_1_" d="M543.2,22.4c-0.4,22.8-8.8,62.7-19.3,91.3c-2.1,5.7-3.9,11.1-3.9,11.9c0,1.3-6.5,17.6-13.6,33.7
					c-6.8,15.5-22.4,47.2-29.5,60c-3.7,6.5-8,14.4-9.6,17.3c-1.6,2.9-5.1,8.9-7.7,13.3s-6.1,10.4-7.7,13.3s-4.5,7.7-6.5,10.7
					c-6,8.9-11.2,16.8-12.7,19.3c-0.7,1.3-4.1,6.5-7.5,11.6c-3.3,4.9-7.7,11.5-9.6,14.4c-6.3,9.5-17.9,25.9-22.1,31.2
					c-2.3,2.8-4.1,5.5-4.1,5.9c0,0.9-51.5,69.6-57.6,76.9c-4.8,5.7-3.9,4.5-18.1,23.1c-6.5,8.4-13.7,17.6-16.1,20.4
					c-4.4,5.5-19.6,24.7-42.1,53.2c-7.3,9.3-17.5,22-22.4,28.3c-4.9,6.1-11.5,14.3-14.4,18.1c-14.4,18.7-16.8,21.7-20.5,26.4
					c-11.6,14.7-36,46.4-54.7,71.2c-11.6,15.3-21.6,28.1-22.1,28.4c-0.7,0.3-1.2,0.9-1.2,1.6s-5.6,8.5-12.4,17.6
					c-15.1,20-17.2,23.1-43.6,63.1c-13.5,20.4-26.3,47.5-34.5,73.3c-9.1,28.1-8.9,69.3,0.4,99.3c9.5,30.3,21.1,53.2,40.7,80
					c7.6,10.4,25.7,32,35.3,42c17.3,18,54.8,49.9,75.3,64c24.9,17.1,28.4,19.3,28.9,19.3c0.4,0,4.3,2.4,8.8,5.3
					c4.4,3.1,8.3,5.2,8.5,4.9c0.4-0.3-1.7-5.3-4.5-11.1c-6.4-12.8-7.5-16.1-10.9-33.5c-5.6-28.1-2.5-63.5,8-91.2
					c7.2-18.8,21.6-47.2,34-66.5c7.6-12.1,26.7-40.1,32-47.3c3.2-4.4,6.5-9.2,7.2-10.7s2.7-4.3,4.4-6.3c1.7-1.9,5.5-6.9,8.4-11.1
					c2.9-4.1,7.2-9.9,9.3-12.7c2.3-2.8,6.1-7.9,8.7-11.2c4.9-6.7,12.5-16.5,14.5-18.9c0.7-0.9,6.8-8.7,13.5-17.3
					c14.3-18.4,15.5-19.9,28.1-35.9c5.2-6.7,11.1-14,12.9-16.5c6.5-8.1,22.9-28.7,29.3-36.5c3.5-4.3,7.7-9.9,9.6-12.3
					c4.3-5.6,29.7-37.1,30.7-38c0.4-0.4,3.7-4.5,7.3-9.1c3.7-4.7,10.3-12.8,14.7-18.1s10.1-12.3,12.7-15.5
					c10.1-12.5,43.9-52.9,51.7-62c2-2.3,6-7.1,8.9-10.7c2.8-3.7,6.8-8.5,8.8-10.7c4.9-5.6,46.1-53.6,52.1-60.8
					c2.7-3.2,8.8-10.7,13.7-16.5c4.9-5.9,10.8-12.9,13.2-15.9c2.3-2.8,5.7-6.9,7.6-9.3c13.9-16.8,33.3-43.7,44.5-61.5
					c16.3-26.1,27.2-54.7,29.3-76.7c2-21.1-4.9-48.4-20-79.2c-5.5-11.1-10.9-22-12.3-24.1c-1.3-2.3-4.1-7.1-6.3-10.7
					c-5.1-8.5-23.3-36.3-34.8-52.7c-4.8-6.9-9.9-14.1-11.1-16c-1.2-1.9-5.6-7.9-9.6-13.3c-4.1-5.5-8.4-11.6-9.6-13.5
					c-1.2-1.9-3.1-4.4-4.1-5.3c-0.9-1.1-3.3-4.1-5.1-6.8c-1.7-2.7-7.7-10.9-13.2-18.4s-10.7-14.7-11.5-16.1c-0.8-1.5-2.7-4-4-5.6
					c-1.5-1.6-5.5-7.2-8.9-12.3C551.3,18,545.7,10.1,544.7,9.7C543.9,9.5,543.2,14.7,543.2,22.4L543.2,22.4z"/>
			</defs>
			<clipPath id="SVGID_00000161621914592646682660000017935567702757849261_">
				<use xlink:href="#SVGID_1_"  style="overflow:visible;"/>
			</clipPath>
			
				<linearGradient id="SVGID_00000098936096727340159110000017583167388138479009_" gradientUnits="userSpaceOnUse" x1="753.642" y1="-164.4438" x2="77.751" y2="695.4563" gradientTransform="matrix(1 0 0 1 0 828)">
				<stop  offset="0" style="stop-color:#006EFF"/>
				<stop  offset="1" style="stop-color:#000000"/>
			</linearGradient>
			
				<rect style="clip-path:url(#SVGID_00000161621914592646682660000017935567702757849261_);fill:url(#SVGID_00000098936096727340159110000017583167388138479009_);" width="1050.7" height="1908"/>
		</g>
	</g>
	<g>
		<g>
			<defs>
				<path id="SVGID_00000183969630785975320350000009022652447518552709_" d="M712,569.3c0,1.6,1.1,4.4,2.4,6.3
					c1.7,2.8,2.3,6.3,2.1,15.1c-0.3,27.3-14.8,62.7-42.5,104c-9.2,13.5-18.5,27.1-20.8,30c-1.5,1.7-17.2,23.1-19.9,26.8
					c-1.1,1.6-18,24.1-37.5,50c-39.2,52.4-51.9,69.3-58.8,79.2c-2.5,3.6-11.5,16.1-19.9,27.6c-23.2,31.9-29.7,41.1-31.9,44.3
					c-1.1,1.7-3.9,5.7-6.3,8.9s-5.7,7.9-7.3,10.3c-1.7,2.4-5.3,7.3-8,10.8c-2.8,3.6-5.1,7.1-5.1,7.9c0,0.7-0.9,2.1-2.1,3.1
					c-1.2,0.9-4.1,4.8-6.7,8.5c-2.4,3.6-6.7,9.9-9.5,13.7c-2.8,4-6,8.5-7.1,10.3s-8.9,13.5-17.5,26.3c-8.4,12.7-18,27.6-21.2,33.1
					c-3.1,5.5-7.1,12.1-8.5,14.7c-7.6,12.3-19.9,40.8-23.7,54.7c-6.8,24.9-8.5,40.3-6.4,58.7c1.6,14.1,7.9,39.3,12.1,48.9
					c9.6,21.6,21.5,44,27.2,51.7c1.9,2.3,3.3,4.7,3.3,5.2c0,1.1,16.9,24.1,23.1,31.5c20.3,24.3,50.1,54.5,73.5,74.5
					c24.5,20.9,27.2,22.4,20.1,10.3c-7.2-12.3-12.7-35.7-12.7-53.9c0.1-32.7,11.7-74.8,32-114.9c7.2-14.4,14.7-28.1,17.5-32.3
					c1.5-1.9,2.5-3.9,2.5-4.4s1.7-3.3,3.7-6.4c2.1-3.1,9.2-13.6,15.7-23.5c14.7-21.9,14-21.1,24.1-34.5c4.7-6,8.4-11.6,8.4-12.1
					c0-0.7,0.5-1.5,1.1-1.7c1.1-0.4,5.3-5.6,17.6-21.9c2.8-3.7,7.3-9.5,10.3-12.9c2.8-3.3,9.6-11.6,15.1-18.4
					c9.3-11.5,23.1-28,29.7-35.9c1.6-1.9,5.3-6.4,8.3-10c4.5-5.7,10-12.1,33.9-40.1c1.9-2.3,5.9-6.9,8.8-10.5s9.2-11.1,14-16.7
					s10.5-12.5,12.9-15.5c2.4-2.8,8-9.7,12.7-15.3s10.5-12.9,13.1-16.4c2.5-3.5,6.5-8.5,8.7-11.5c7.2-9.3,13.2-17.7,14.7-20.1
					c0.7-1.3,4.7-7.3,8.8-13.5c11.2-16.7,23.1-42.3,28.1-60.5c4.1-15.1,4.4-16.9,4.3-37.9c0-21.1-0.3-22.7-4.3-35.3
					c-6.1-18.9-15.9-38.3-29.3-58.1c-3.5-5.2-6.9-10.5-7.7-12s-2.8-4.1-4.3-5.9c-1.5-1.7-3.9-4.8-5.2-6.9
					c-3.7-5.9-34.9-47.2-38.9-51.7c-2-2.3-4.7-5.5-5.9-7.3c-1.3-1.9-4.3-5.7-6.7-8.8c-2.3-3.1-10.4-13.7-18-23.7
					s-14.3-18.1-14.9-18.1C712.5,566.7,712,567.9,712,569.3L712,569.3z"/>
			</defs>
			<clipPath id="SVGID_00000156587741740607523120000007723729752174214274_">
				<use xlink:href="#SVGID_00000183969630785975320350000009022652447518552709_"  style="overflow:visible;"/>
			</clipPath>
			
				<linearGradient id="SVGID_00000018957672724882547430000012016313105150771587_" gradientUnits="userSpaceOnUse" x1="753.8229" y1="-164.4195" x2="77.9319" y2="695.4805" gradientTransform="matrix(1 0 0 1 0 828)">
				<stop  offset="0" style="stop-color:#006EFF"/>
				<stop  offset="1" style="stop-color:#000000"/>
			</linearGradient>
			
				<rect x="0.2" style="clip-path:url(#SVGID_00000156587741740607523120000007723729752174214274_);fill:url(#SVGID_00000018957672724882547430000012016313105150771587_);" width="1050.7" height="1908"/>
		</g>
	</g>
	<g>
		<g>
			<defs>
				<path id="SVGID_00000146486961540183116640000004880586495395464880_" d="M710.7,1207.6c0,6-14,52.5-22,73.1
					c-1.7,4.4-5.3,13.7-8,20.7c-2.7,6.9-6,15.1-7.2,18c-1.3,2.9-5.2,12.5-8.7,21.3s-8.1,20-10.3,25.1c-2.1,4.9-3.9,9.7-3.9,10.7
					c0,1.1-1.5,5.5-3.3,10c-4.1,10.3-9.5,32.8-11.3,48c-1.5,12-0.1,30.9,2.8,38.4c0.7,2,1.9,6,2.5,9.1c2,8.8,16.3,37.7,23.1,46.5
					c2,2.7,3.6,5.2,3.6,5.7c0,0.9,5.2,8.3,12.7,17.7c2.3,2.8,6.4,8.3,9.3,12.1c2.9,3.9,6.3,8,7.3,9.2c1.1,1.2,3.3,3.9,5.1,6
					c5.5,7.1,33.2,36.9,54.4,58.7c0.8,0.8,17.3,16.8,36.7,35.5c79.1,76.1,104.8,103.5,120,127.3c4.9,7.7,21.6,42.3,24.4,50.4
					c1.2,3.6,3.5,2.7,3.5-1.5c0-7.1,5.1-27.6,9.7-39.6c6.1-15.5,21.1-47.5,27.5-58.8c2.5-4.5,16.9-35.6,21.9-47.2
					c18-42.3,21.1-78.3,9.6-110.1c-7.1-19.6-13.5-31.3-30.7-56c-4.4-6.4-8.1-10.9-25.7-31.2c-4.1-4.8-24.4-25.5-44.9-46
					c-39.3-39.5-61.5-62.8-72-75.9c-2.1-2.8-4.7-5.7-5.3-6.7c-0.8-0.8-3.7-4.5-6.7-8.1c-2.8-3.7-5.9-7.3-6.5-8
					c-0.8-0.8-2.9-3.5-4.8-6c-1.7-2.5-3.7-5.3-4.3-6c-5.2-6.4-28-37.9-29.7-40.8c-0.7-1.3-5.3-8.3-10.1-15.5s-12.3-18.5-16.5-25.1
					c-4.1-6.7-9.3-14.5-11.5-17.7c-2.1-3.1-3.9-6-3.9-6.5c0-0.4-2-3.5-4.4-6.9c-2.3-3.3-5.1-7.6-6-9.5c-4.5-8.7-13.1-21.9-14.5-22.4
					C711.5,1205.3,710.7,1206.3,710.7,1207.6L710.7,1207.6z"/>
			</defs>
			<clipPath id="SVGID_00000085967188180023047040000001693719728042553993_">
				<use xlink:href="#SVGID_00000146486961540183116640000004880586495395464880_"  style="overflow:visible;"/>
			</clipPath>
			
				<linearGradient id="SVGID_00000116913459084346168130000008538724219541028767_" gradientUnits="userSpaceOnUse" x1="753.8229" y1="-164.4195" x2="77.9319" y2="695.4805" gradientTransform="matrix(1 0 0 1 0 828)">
				<stop  offset="0" style="stop-color:#006EFF"/>
				<stop  offset="1" style="stop-color:#000000"/>
			</linearGradient>
			
				<rect x="0.2" style="clip-path:url(#SVGID_00000085967188180023047040000001693719728042553993_);fill:url(#SVGID_00000116913459084346168130000008538724219541028767_);" width="1050.7" height="1908"/>
		</g>
	</g>
</g>
</svg>
