<?xml version="1.0" encoding="utf-8"?>
<!-- Generator: Adobe Illustrator 26.4.1, SVG Export Plug-In . SVG Version: 6.00 Build 0)  -->
<svg version="1.1" id="Layer_1" xmlns="http://www.w3.org/2000/svg" xmlns:xlink="http://www.w3.org/1999/xlink" x="0px" y="0px"
	 viewBox="0 0 1129 663" style="enable-background:new 0 0 1129 663;" xml:space="preserve">
<style type="text/css">
	.st0{fill:#F2F2F2;}
	.st1{fill:#3F3D56;}
	.st2{opacity:0.2;enable-background:new    ;}
	.st3{fill:#C7D9EB;}
	.st4{fill:#87CDF1;}
	
		.st5{clip-path:url(#SVGID_00000160187131760498081170000009657334227077425343_);fill:url(#SVGID_00000147938586089609048300000000731806733115582870_);}
	
		.st6{clip-path:url(#SVGID_00000000187374463314102370000000467647173501133986_);fill:url(#SVGID_00000002372998406704767710000004551925406935589270_);}
	
		.st7{clip-path:url(#SVGID_00000044168448666979109420000010087420482165148054_);fill:url(#SVGID_00000086661137389242271330000004633037674281673093_);}
</style>
<circle class="st0" cx="321" cy="321" r="321"/>
<ellipse class="st1" cx="587" cy="635.5" rx="542" ry="27.5"/>
<ellipse class="st2" cx="585.9" cy="627" rx="485.1" ry="22"/>
<rect x="135.7" y="152.5" class="st1" width="885.8" height="50"/>
<path class="st1" d="M135.7,608.8c0,12,10.2,21.7,22.9,21.7c0,0,0,0,0,0h840.1c12.6,0,22.9-9.7,22.9-21.7c0,0,0,0,0,0V177.5H135.7
	V608.8z"/>
<path class="st1" d="M998.6,117.5H158.5c-12.6,0-22.9,9.7-22.9,21.7v0v38.3h885.8v-38.3C1021.4,127.2,1011.2,117.5,998.6,117.5
	C998.6,117.5,998.6,117.5,998.6,117.5z"/>
<path class="st2" d="M998.6,117.5H158.5c-12.6,0-22.9,9.7-22.9,21.7v0v38.3h885.8v-38.3C1021.4,127.2,1011.2,117.5,998.6,117.5
	C998.6,117.5,998.6,117.5,998.6,117.5z"/>
<circle class="st1" cx="181" cy="147.5" r="13"/>
<circle class="st1" cx="217" cy="147.5" r="13"/>
<circle class="st1" cx="253" cy="147.5" r="13"/>
<path class="st3" d="M173.3,213.5h326.3c2.9,0,5.3,2.4,5.3,5.3v375.3c0,2.9-2.4,5.3-5.3,5.3H173.3c-2.9,0-5.3-2.4-5.3-5.3V218.8
	C168,215.9,170.4,213.5,173.3,213.5z"/>
<path class="st4" d="M639.2,272.5h287.9c3.2,0,5.8,2.5,5.8,5.5v11c0,3-2.6,5.5-5.8,5.5H639.2c-3.2,0-5.8-2.5-5.8-5.5v-11
	C633.4,275,636,272.5,639.2,272.5z"/>
<path class="st4" d="M569.6,352.5h427.1c3.2,0,5.8,2.5,5.8,5.5v4c0,3-2.6,5.5-5.8,5.5H569.6c-3.2,0-5.8-2.5-5.8-5.5v-4
	C563.8,355,566.4,352.5,569.6,352.5z"/>
<path class="st4" d="M569.6,396.5h427.1c3.2,0,5.8,2.5,5.8,5.5v4c0,3-2.6,5.5-5.8,5.5H569.6c-3.2,0-5.8-2.5-5.8-5.5v-4
	C563.8,399,566.4,396.5,569.6,396.5z"/>
<path class="st4" d="M569.6,440.5h427.1c3.2,0,5.8,2.5,5.8,5.5v4c0,3-2.6,5.5-5.8,5.5H569.6c-3.2,0-5.8-2.5-5.8-5.5v-4
	C563.8,443,566.4,440.5,569.6,440.5z"/>
<path class="st4" d="M569.6,484.5h427.1c3.2,0,5.8,2.5,5.8,5.5v4c0,3-2.6,5.5-5.8,5.5H569.6c-3.2,0-5.8-2.5-5.8-5.5v-4
	C563.8,487,566.4,484.5,569.6,484.5z"/>
<path class="st4" d="M917.1,552.5h78c4.1,0,7.4,3.1,7.4,7v11.9c0,3.9-3.3,7-7.4,7h-78c-4.1,0-7.4-3.1-7.4-7v-11.9
	C909.7,555.6,913,552.5,917.1,552.5z"/>
<g>
	<g>
		<g>
			<defs>
				<path id="SVGID_1_" d="M325.4,233.9c-0.1,4.3-1.6,11.7-3.6,17.1c-0.4,1.1-0.7,2.1-0.7,2.2c0,0.2-1.2,3.3-2.5,6.3
					c-1.3,2.9-4.2,8.8-5.5,11.2c-0.7,1.2-1.5,2.7-1.8,3.2c-0.3,0.5-1,1.7-1.4,2.5c-0.5,0.8-1.1,1.9-1.4,2.5c-0.3,0.5-0.8,1.4-1.2,2
					c-1.1,1.7-2.1,3.1-2.4,3.6c-0.1,0.2-0.8,1.2-1.4,2.2c-0.6,0.9-1.4,2.2-1.8,2.7c-1.2,1.8-3.3,4.8-4.1,5.8c-0.4,0.5-0.8,1-0.8,1.1
					c0,0.2-9.6,13-10.8,14.4c-0.9,1.1-0.7,0.8-3.4,4.3c-1.2,1.6-2.6,3.3-3,3.8c-0.8,1-3.7,4.6-7.9,10c-1.4,1.7-3.3,4.1-4.2,5.3
					c-0.9,1.1-2.2,2.7-2.7,3.4c-2.7,3.5-3.1,4.1-3.8,4.9c-2.2,2.8-6.7,8.7-10.2,13.3c-2.2,2.9-4,5.3-4.1,5.3
					c-0.1,0.1-0.2,0.2-0.2,0.3c0,0.1-1,1.6-2.3,3.3c-2.8,3.7-3.2,4.3-8.2,11.8c-2.5,3.8-4.9,8.9-6.5,13.7c-1.7,5.3-1.7,13,0.1,18.6
					c1.8,5.7,3.9,10,7.6,15c1.4,1.9,4.8,6,6.6,7.9c3.2,3.4,10.3,9.3,14.1,12c4.7,3.2,5.3,3.6,5.4,3.6c0.1,0,0.8,0.4,1.6,1
					c0.8,0.6,1.6,1,1.6,0.9c0.1-0.1-0.3-1-0.8-2.1c-1.2-2.4-1.4-3-2-6.3c-1-5.3-0.5-11.9,1.5-17.1c1.3-3.5,4-8.8,6.4-12.4
					c1.4-2.3,5-7.5,6-8.9c0.6-0.8,1.2-1.7,1.3-2s0.5-0.8,0.8-1.2c0.3-0.4,1-1.3,1.6-2.1c0.5-0.8,1.3-1.9,1.7-2.4
					c0.4-0.5,1.1-1.5,1.6-2.1c0.9-1.3,2.3-3.1,2.7-3.5c0.1-0.2,1.3-1.6,2.5-3.2c2.7-3.4,2.9-3.7,5.3-6.7c1-1.3,2.1-2.6,2.4-3.1
					c1.2-1.5,4.3-5.4,5.5-6.8c0.7-0.8,1.4-1.9,1.8-2.3c0.8-1,5.6-6.9,5.7-7.1c0.1-0.1,0.7-0.8,1.4-1.7c0.7-0.9,1.9-2.4,2.8-3.4
					c0.8-1,1.9-2.3,2.4-2.9c1.9-2.3,8.2-9.9,9.7-11.6c0.4-0.4,1.1-1.3,1.7-2c0.5-0.7,1.3-1.6,1.6-2c0.9-1,8.6-10,9.7-11.4
					c0.5-0.6,1.6-2,2.6-3.1c0.9-1.1,2-2.4,2.5-3c0.4-0.5,1.1-1.3,1.4-1.7c2.6-3.1,6.2-8.2,8.3-11.5c3.1-4.9,5.1-10.2,5.5-14.4
					c0.4-3.9-0.9-9.1-3.7-14.8c-1-2.1-2-4.1-2.3-4.5c-0.2-0.4-0.8-1.3-1.2-2c-1-1.6-4.4-6.8-6.5-9.9c-0.9-1.3-1.9-2.6-2.1-3
					c-0.2-0.4-1-1.5-1.8-2.5c-0.8-1-1.6-2.2-1.8-2.5c-0.2-0.4-0.6-0.8-0.8-1c-0.2-0.2-0.6-0.8-1-1.3c-0.3-0.5-1.4-2-2.5-3.4
					s-2-2.8-2.2-3c-0.1-0.3-0.5-0.7-0.7-1c-0.3-0.3-1-1.3-1.7-2.3c-4.8-6.9-5.8-8.4-6-8.5C325.5,231.5,325.4,232.4,325.4,233.9
					L325.4,233.9z"/>
			</defs>
			<clipPath id="SVGID_00000046313539767338822260000005344325897125991049_">
				<use xlink:href="#SVGID_1_"  style="overflow:visible;"/>
			</clipPath>
			
				<linearGradient id="SVGID_00000160903660102009559700000006302778139294424233_" gradientUnits="userSpaceOnUse" x1="364.7352" y1="-474.146" x2="238.2502" y2="-313.226" gradientTransform="matrix(1 0 0 1 0 828)">
				<stop  offset="0" style="stop-color:#006EFF"/>
				<stop  offset="1" style="stop-color:#000000"/>
			</linearGradient>
			
				<rect x="223.7" y="229.7" style="clip-path:url(#SVGID_00000046313539767338822260000005344325897125991049_);fill:url(#SVGID_00000160903660102009559700000006302778139294424233_);" width="196.6" height="357.1"/>
		</g>
	</g>
	<g>
		<g>
			<defs>
				<path id="SVGID_00000072281122713379900380000004915056553122212758_" d="M356.9,336.2c0,0.3,0.2,0.8,0.4,1.2
					c0.3,0.5,0.4,1.2,0.4,2.8c-0.1,5.1-2.8,11.7-8,19.5c-1.7,2.5-3.5,5.1-3.9,5.6c-0.3,0.3-3.2,4.3-3.7,5c-0.2,0.3-3.4,4.5-7,9.4
					c-7.3,9.8-9.7,13-11,14.8c-0.5,0.7-2.2,3-3.7,5.2c-4.3,6-5.6,7.7-6,8.3c-0.2,0.3-0.7,1.1-1.2,1.7s-1.1,1.5-1.4,1.9
					c-0.3,0.4-1,1.4-1.5,2c-0.5,0.7-1,1.3-1,1.5c0,0.1-0.2,0.4-0.4,0.6c-0.2,0.2-0.8,0.9-1.3,1.6c-0.4,0.7-1.3,1.9-1.8,2.6
					c-0.5,0.7-1.1,1.6-1.3,1.9c-0.2,0.3-1.7,2.5-3.3,4.9c-1.6,2.4-3.4,5.2-4,6.2c-0.6,1-1.3,2.3-1.6,2.8c-1.4,2.3-3.7,7.6-4.4,10.2
					c-1.3,4.7-1.6,7.5-1.2,11c0.3,2.6,1.5,7.4,2.3,9.2c1.8,4,4,8.2,5.1,9.7c0.4,0.4,0.6,0.9,0.6,1c0,0.2,3.2,4.5,4.3,5.9
					c3.8,4.5,9.4,10.2,13.8,13.9c4.6,3.9,5.1,4.2,3.8,1.9c-1.3-2.3-2.4-6.7-2.4-10.1c0-6.1,2.2-14,6-21.5c1.3-2.7,2.8-5.3,3.3-6
					c0.3-0.4,0.5-0.7,0.5-0.8s0.3-0.6,0.7-1.2c0.4-0.6,1.7-2.5,2.9-4.4c2.8-4.1,2.6-3.9,4.5-6.5c0.9-1.1,1.6-2.2,1.6-2.3
					c0-0.1,0.1-0.3,0.2-0.3c0.2-0.1,1-1,3.3-4.1c0.5-0.7,1.4-1.8,1.9-2.4c0.5-0.6,1.8-2.2,2.8-3.4c1.7-2.2,4.3-5.2,5.6-6.7
					c0.3-0.4,1-1.2,1.6-1.9c0.8-1.1,1.9-2.3,6.3-7.5c0.4-0.4,1.1-1.3,1.6-2c0.5-0.7,1.7-2.1,2.6-3.1c0.9-1,2-2.3,2.4-2.9
					c0.4-0.5,1.5-1.8,2.4-2.9c0.9-1,2-2.4,2.5-3.1c0.5-0.7,1.2-1.6,1.6-2.2c1.3-1.7,2.5-3.3,2.8-3.8c0.1-0.2,0.9-1.4,1.6-2.5
					c2.1-3.1,4.3-7.9,5.3-11.3c0.8-2.8,0.8-3.2,0.8-7.1c0-3.9-0.1-4.2-0.8-6.6c-1.1-3.5-3-7.2-5.5-10.9c-0.7-1-1.3-2-1.4-2.2
					c-0.1-0.3-0.5-0.8-0.8-1.1c-0.3-0.3-0.7-0.9-1-1.3c-0.7-1.1-6.5-8.8-7.3-9.7c-0.4-0.4-0.9-1-1.1-1.4c-0.2-0.4-0.8-1.1-1.3-1.6
					c-0.4-0.6-1.9-2.6-3.4-4.4s-2.7-3.4-2.8-3.4C357,335.7,356.9,336,356.9,336.2L356.9,336.2z"/>
			</defs>
			<clipPath id="SVGID_00000149339605288437501940000001653147349003746441_">
				<use xlink:href="#SVGID_00000072281122713379900380000004915056553122212758_"  style="overflow:visible;"/>
			</clipPath>
			
				<linearGradient id="SVGID_00000064314178227490328260000014909265014377060509_" gradientUnits="userSpaceOnUse" x1="364.769" y1="-474.1415" x2="238.284" y2="-313.2214" gradientTransform="matrix(1 0 0 1 0 828)">
				<stop  offset="0" style="stop-color:#006EFF"/>
				<stop  offset="1" style="stop-color:#000000"/>
			</linearGradient>
			
				<rect x="223.7" y="229.7" style="clip-path:url(#SVGID_00000149339605288437501940000001653147349003746441_);fill:url(#SVGID_00000064314178227490328260000014909265014377060509_);" width="196.6" height="357.1"/>
		</g>
	</g>
	<g>
		<g>
			<defs>
				<path id="SVGID_00000116953115206422734490000007344496655790686629_" d="M356.7,455.7c0,1.1-2.6,9.8-4.1,13.7
					c-0.3,0.8-1,2.6-1.5,3.9c-0.5,1.3-1.1,2.8-1.3,3.4c-0.2,0.5-1,2.3-1.6,4c-0.7,1.6-1.5,3.7-1.9,4.7c-0.4,0.9-0.7,1.8-0.7,2
					c0,0.2-0.3,1-0.6,1.9c-0.8,1.9-1.8,6.1-2.1,9c-0.3,2.2,0,5.8,0.5,7.2c0.1,0.4,0.4,1.1,0.5,1.7c0.4,1.6,3.1,7.1,4.3,8.7
					c0.4,0.5,0.7,1,0.7,1.1c0,0.2,1,1.6,2.4,3.3c0.4,0.5,1.2,1.6,1.7,2.3c0.5,0.7,1.2,1.5,1.4,1.7c0.2,0.2,0.6,0.7,1,1.1
					c1,1.3,6.2,6.9,10.2,11c0.1,0.1,3.2,3.1,6.9,6.6c14.8,14.2,19.6,19.4,22.5,23.8c0.9,1.4,4,7.9,4.6,9.4c0.2,0.7,0.7,0.5,0.7-0.3
					c0-1.3,1-5.2,1.8-7.4c1.1-2.9,3.9-8.9,5.1-11c0.5-0.8,3.2-6.7,4.1-8.8c3.4-7.9,3.9-14.7,1.8-20.6c-1.3-3.7-2.5-5.9-5.7-10.5
					c-0.8-1.2-1.5-2-4.8-5.8c-0.8-0.9-4.6-4.8-8.4-8.6c-7.4-7.4-11.5-11.8-13.5-14.2c-0.4-0.5-0.9-1.1-1-1.3
					c-0.1-0.1-0.7-0.8-1.3-1.5c-0.5-0.7-1.1-1.4-1.2-1.5c-0.1-0.1-0.5-0.7-0.9-1.1c-0.3-0.5-0.7-1-0.8-1.1c-1-1.2-5.2-7.1-5.6-7.6
					c-0.1-0.2-1-1.6-1.9-2.9s-2.3-3.5-3.1-4.7c-0.8-1.3-1.7-2.7-2.2-3.3c-0.4-0.6-0.7-1.1-0.7-1.2c0-0.1-0.4-0.7-0.8-1.3
					c-0.4-0.6-1-1.4-1.1-1.8c-0.8-1.6-2.5-4.1-2.7-4.2C356.8,455.2,356.7,455.4,356.7,455.7L356.7,455.7z"/>
			</defs>
			<clipPath id="SVGID_00000001648218940748074410000012034578693715670964_">
				<use xlink:href="#SVGID_00000116953115206422734490000007344496655790686629_"  style="overflow:visible;"/>
			</clipPath>
			
				<linearGradient id="SVGID_00000162341878814098452710000011236888748044236684_" gradientUnits="userSpaceOnUse" x1="364.769" y1="-474.1415" x2="238.284" y2="-313.2214" gradientTransform="matrix(1 0 0 1 0 828)">
				<stop  offset="0" style="stop-color:#006EFF"/>
				<stop  offset="1" style="stop-color:#000000"/>
			</linearGradient>
			
				<rect x="223.7" y="229.7" style="clip-path:url(#SVGID_00000001648218940748074410000012034578693715670964_);fill:url(#SVGID_00000162341878814098452710000011236888748044236684_);" width="196.6" height="357.1"/>
		</g>
	</g>
</g>
</svg>
